PathFileType	4	(X/Y/Z)	 s02c0401.trc
DataRate	CameraRate	NumFrames	NumMarkers	Units	OrigDataRate	OrigDataStartFrame	OrigNumFrames
200	200	4	50	mm	200	251	2000
Frame#	Time	racr			lacr			c7			jug			rlel			rdr			llel			ldr			s2			lic			ric			lasi			rasi			rpsi			lpsi			rgt			lgt			rth1			rth2			rth3			rth4			rlfc			rmfc			rsh1			rsh2			rsh3			rsh4			rlmal			rmmal			rtoe			rmt5			rmt1			lth1			lth2			lth4			lth3			llfc			lmfc			lsh1			lsh2			lsh3			lsh4			llmal			lmmal			lcal			ltoe			lmt5			SBIKE			LBIKE			RBIKE			
		X1	Y1	Z1	X2	Y2	Z2	X3	Y3	Z3	X4	Y4	Z4	X5	Y5	Z5	X6	Y6	Z6	X7	Y7	Z7	X8	Y8	Z8	X9	Y9	Z9	X10	Y10	Z10	X11	Y11	Z11	X12	Y12	Z12	X13	Y13	Z13	X14	Y14	Z14	X15	Y15	Z15	X16	Y16	Z16	X17	Y17	Z17	X18	Y18	Z18	X19	Y19	Z19	X20	Y20	Z20	X21	Y21	Z21	X22	Y22	Z22	X23	Y23	Z23	X24	Y24	Z24	X25	Y25	Z25	X26	Y26	Z26	X27	Y27	Z27	X28	Y28	Z28	X29	Y29	Z29	X30	Y30	Z30	X31	Y31	Z31	X32	Y32	Z32	X33	Y33	Z33	X34	Y34	Z34	X35	Y35	Z35	X36	Y36	Z36	X37	Y37	Z37	X38	Y38	Z38	X39	Y39	Z39	X40	Y40	Z40	X41	Y41	Z41	X42	Y42	Z42	X43	Y43	Z43	X44	Y44	Z44	X45	Y45	Z45	X46	Y46	Z46	X47	Y47	Z47	X48	Y48	Z48	X49	Y49	Z49	X50	Y50	Z50	
251	1.2550	469.086889	1320.730947	-137.078980	474.444865	1328.235158	-484.644246	479.881206	1362.335335	-316.516771	432.424696	1236.217142	-318.685608	589.879320	1073.838238	-121.825588	716.758514	883.433889	-122.619893	572.708853	1068.758471	-518.953067	706.948986	884.446418	-503.234160	2.806388	1094.029615	-317.305022	146.137940	1102.034634	-455.094213	128.768285	1117.450767	-178.476942	194.152096	1072.752251	-430.943004	178.627832	1085.807444	-199.091907	18.284644	1134.337497	-276.589701	25.857891	1137.896488	-361.839208	112.943658	1036.652653	-131.409305	95.460893	1001.401782	-486.629663	199.388586	1014.828061	-128.030752	287.420082	1009.365564	-134.191221	360.968339	972.884887	-108.301255	296.388933	1031.573601	-163.547107	486.297975	889.029230	-138.789273	482.613534	870.124739	-252.347269	462.851578	777.941577	-125.857884	436.482014	695.100987	-146.441934	378.090416	631.555036	-141.533406	447.600100	691.672046	-184.618434	307.480316	534.682379	-148.717162	315.842258	554.282271	-229.282823	522.697129	474.883200	-186.138376	408.272254	460.111694	-128.299380	436.191769	474.488931	-236.171309	194.562170	901.071156	-505.770700	259.290662	842.594347	-506.180631	287.646276	860.568561	-490.119226	284.255790	757.008795	-507.163614	334.768617	669.189421	-487.028216	342.020405	639.610423	-384.334047	286.505055	575.875849	-505.653843	261.970622	494.313023	-488.839660	196.861408	431.847560	-488.616660	282.156517	486.363995	-453.824980	131.361472	350.948987	-470.080258	149.200604	339.852991	-393.605208	54.716685	337.549271	-428.858749	287.290876	170.150058	-441.689226	184.632263	208.683621	-499.780224	-162.494459	860.830718	-309.811332	37.328040	86.387946	-514.223742	34.043882	83.062195	-114.206086	
252	1.2600	469.106664	1320.743793	-137.087874	474.443621	1328.255094	-484.647829	479.888880	1362.326965	-316.530292	432.410376	1236.201296	-318.715824	589.907703	1073.851390	-121.836483	716.749131	883.421282	-122.618507	572.714550	1068.770075	-518.934470	706.953581	884.457081	-503.238589	2.793558	1094.046152	-317.285437	146.123557	1102.047745	-455.098126	128.760396	1117.435396	-178.452085	194.146737	1072.774574	-430.963640	178.591258	1085.838447	-199.077109	18.265805	1134.363340	-276.564573	25.854614	1137.908489	-361.861889	112.924374	1036.661877	-131.411425	95.468740	1001.431745	-486.633811	199.360076	1014.827674	-128.009498	287.403043	1009.371237	-134.187045	360.936440	972.877793	-108.320347	296.362945	1031.585545	-163.553598	486.275081	889.037167	-138.804807	482.564949	870.159791	-252.333824	462.818539	777.938269	-125.861528	436.465082	695.159255	-146.422147	378.047885	631.581061	-141.532062	447.549160	691.692366	-184.649412	307.440227	534.693299	-148.694744	315.823824	554.287310	-229.291044	522.668760	474.899125	-186.135525	408.247176	460.128015	-128.302223	436.165547	474.503857	-236.165958	194.607076	901.123359	-505.757636	259.318127	842.666725	-506.167369	287.686015	860.637466	-490.076196	284.298176	757.070278	-507.162708	334.808711	669.244494	-487.050421	342.050809	639.641739	-384.359450	286.554744	575.906380	-505.656083	262.020667	494.315651	-488.852325	196.936281	431.855711	-488.640801	282.211640	486.383031	-453.855421	131.446953	350.943758	-470.108450	149.261866	339.797769	-393.642385	54.820243	337.594489	-428.887609	287.305264	170.082814	-441.694600	184.674189	208.657605	-499.792156	-162.549571	860.859743	-309.726623	37.324128	86.356652	-514.271024	34.051081	83.061967	-114.207090	
253	1.2650	469.133199	1320.742880	-137.110729	474.450973	1328.264269	-484.635260	479.889292	1362.317599	-316.535092	432.409130	1236.231935	-318.716154	589.929613	1073.851113	-121.836722	716.765389	883.437740	-122.615170	572.714158	1068.770350	-518.918625	706.967493	884.449374	-503.228841	2.772212	1094.068830	-317.270499	146.116298	1102.070064	-455.087373	128.748491	1117.426412	-178.457300	194.147964	1072.783870	-430.963265	178.588753	1085.841257	-199.074599	18.247403	1134.380477	-276.540604	26.073344	1138.067818	-362.209655	112.901865	1036.676718	-131.416997	95.480922	1001.442531	-486.609962	199.345861	1014.824958	-128.005243	287.371518	1009.385209	-134.188861	360.890139	972.919585	-108.314763	296.342145	1031.577864	-163.569636	486.275231	889.046586	-138.808431	482.558175	870.179188	-252.363981	462.804134	777.921436	-125.882376	436.416193	695.177045	-146.434627	378.029696	631.591748	-141.551323	447.555607	691.694175	-184.622157	307.417380	534.695412	-148.719127	315.801474	554.294321	-229.308582	522.662578	474.928781	-186.135909	408.209000	460.146811	-128.303778	436.160042	474.528706	-236.154951	194.636783	901.164521	-505.729899	259.358060	842.704888	-506.136921	287.715613	860.666156	-490.045241	284.336899	757.105479	-507.159520	334.836079	669.271895	-487.066349	342.079919	639.657080	-384.382572	286.589361	575.920812	-505.670695	262.061285	494.352246	-488.879962	196.981168	431.867156	-488.649146	282.258946	486.415546	-453.873155	131.518310	350.943508	-470.126847	149.334166	339.876654	-393.638532	54.897155	337.616708	-428.923869	287.335865	170.057327	-441.693480	184.714590	208.622222	-499.774829	-162.492552	860.868275	-309.707983	37.330053	86.343878	-514.263616	34.053693	83.070946	-114.210171	
254	1.2700	469.135336	1320.732095	-137.114108	474.440904	1328.271635	-484.596126	479.882097	1362.316040	-316.543556	432.395285	1236.199427	-318.739630	589.961927	1073.862739	-121.865405	716.774698	883.419982	-122.595367	572.734632	1068.767425	-518.906284	706.964541	884.466160	-503.224517	2.738274	1094.075824	-317.268423	146.090793	1102.072019	-455.094082	128.729196	1117.437324	-178.453833	194.130770	1072.809875	-430.961437	178.557195	1085.840291	-199.076058	18.248293	1134.393253	-276.542820	26.066685	1138.078027	-362.234184	112.871070	1036.683516	-131.401064	95.506833	1001.464172	-486.636405	199.313386	1014.839610	-128.003736	287.351372	1009.384972	-134.190838	360.879057	972.916757	-108.336028	296.327103	1031.594402	-163.551296	486.249346	889.064521	-138.820822	482.531039	870.186471	-252.365887	462.753244	777.964639	-125.866223	436.439160	695.205161	-146.393793	378.011766	631.618361	-141.536460	447.519591	691.687490	-184.636916	307.411412	534.713513	-148.730080	315.768374	554.300799	-229.298830	522.620372	474.946310	-186.151819	408.220831	460.151686	-128.321363	436.139207	474.549155	-236.169921	194.675484	901.213464	-505.702512	259.396304	842.737496	-506.127336	287.747547	860.710928	-490.002839	284.365960	757.138272	-507.149310	334.856623	669.277661	-487.078721	342.102022	639.645075	-384.388439	286.604529	575.925137	-505.690574	262.092962	494.362569	-488.896072	197.015799	431.871292	-488.662163	282.280726	486.406568	-453.892357	131.559399	350.939245	-470.136524	149.418811	339.915373	-393.649941	54.947226	337.612804	-428.929292	287.344347	170.002963	-441.685931	184.726558	208.608313	-499.783385	-162.553144	860.823871	-309.771187	37.338301	86.361732	-514.280460	34.049473	83.060223	-114.202287	
